HIERARCHY
ROOT Hips
{
	OFFSET 0.00000 0.00000 0.00000
	CHANNELS 6 Xposition Yposition Zposition Zrotation Yrotation Xrotation 
	JOINT LHipJoint
	{
		OFFSET 0 0 0
		CHANNELS 3 Zrotation Yrotation Xrotation
		JOINT LeftUpLeg
		{
			OFFSET 1.24777 -1.64261 0.71711
			CHANNELS 3 Zrotation Yrotation Xrotation
			JOINT LeftLeg
			{
				OFFSET 2.49329 -6.85026 0.00000
				CHANNELS 3 Zrotation Yrotation Xrotation
				JOINT LeftFoot
				{
					OFFSET 2.36770 -6.50520 0.00000
					CHANNELS 3 Zrotation Yrotation Xrotation
					JOINT LeftToeBase
					{
						OFFSET 0.14820 -0.40718 2.21395
						CHANNELS 3 Zrotation Yrotation Xrotation
						End Site
						{
							OFFSET 0.00000 -0.00000 1.13491
						}
					}
				}
			}
		}
	}
	JOINT RHipJoint
	{
		OFFSET 0 0 0
		CHANNELS 3 Zrotation Yrotation Xrotation
		JOINT RightUpLeg
		{
			OFFSET -1.18320 -1.64261 0.71711
			CHANNELS 3 Zrotation Yrotation Xrotation
			JOINT RightLeg
			{
				OFFSET -2.46559 -6.77417 0.00000
				CHANNELS 3 Zrotation Yrotation Xrotation
				JOINT RightFoot
				{
					OFFSET -2.38450 -6.55136 0.00000
					CHANNELS 3 Zrotation Yrotation Xrotation
					JOINT RightToeBase
					{
						OFFSET -0.17454 -0.47954 2.02925
						CHANNELS 3 Zrotation Yrotation Xrotation
						End Site
						{
							OFFSET -0.00000 -0.00000 1.05076
						}
					}
				}
			}
		}
	}
	JOINT LowerBack
	{
		OFFSET 0 0 0
		CHANNELS 3 Zrotation Yrotation Xrotation
		JOINT Spine
		{
			OFFSET -0.02305 1.98660 0.00319
			CHANNELS 3 Zrotation Yrotation Xrotation
			JOINT Spine1
			{
				OFFSET -0.00718 1.99033 -0.00533
				CHANNELS 3 Zrotation Yrotation Xrotation
				JOINT Neck
				{
					OFFSET 0 0 0
					CHANNELS 3 Zrotation Yrotation Xrotation
					JOINT Neck1
					{
						OFFSET 0.00095 1.61015 0.10698
						CHANNELS 3 Zrotation Yrotation Xrotation
						JOINT Head
						{
							OFFSET -0.01060 1.59924 0.01317
							CHANNELS 3 Zrotation Yrotation Xrotation
							End Site
							{
								OFFSET -0.00458 1.63304 -0.00592
							}
						}
					}
				}
				JOINT LeftShoulder
				{
					OFFSET 0 0 0
					CHANNELS 3 Zrotation Yrotation Xrotation
					JOINT LeftArm
					{
						OFFSET 3.05381 1.47088 -0.01697
						CHANNELS 3 Zrotation Yrotation Xrotation
						JOINT LeftForeArm
						{
							OFFSET 4.25106 -0.00000 0.00000
							CHANNELS 3 Zrotation Yrotation Xrotation
							JOINT LeftHand
							{
								OFFSET 3.27592 -0.00000 0.00000
								CHANNELS 3 Zrotation Yrotation Xrotation
								JOINT LeftFingerBase
								{
									OFFSET 0 0 0
									CHANNELS 3 Zrotation Yrotation Xrotation
									JOINT LeftHandIndex1
									{
										OFFSET 0.65781 -0.00000 0.00000
										CHANNELS 3 Zrotation Yrotation Xrotation
										End Site
										{
											OFFSET 0.53034 -0.00000 0.00000
										}
									}
								}
								JOINT LThumb
								{
									OFFSET 0 0 0
									CHANNELS 3 Zrotation Yrotation Xrotation
									End Site
									{
										OFFSET 0.53844 -0.00000 0.53844
									}
								}
							}
						}
					}
				}
				JOINT RightShoulder
				{
					OFFSET 0 0 0
					CHANNELS 3 Zrotation Yrotation Xrotation
					JOINT RightArm
					{
						OFFSET -2.83695 1.31619 -0.22674
						CHANNELS 3 Zrotation Yrotation Xrotation
						JOINT RightForeArm
						{
							OFFSET -4.46073 -0.00000 0.00000
							CHANNELS 3 Zrotation Yrotation Xrotation
							JOINT RightHand
							{
								OFFSET -3.44416 -0.00000 0.00000
								CHANNELS 3 Zrotation Yrotation Xrotation
								JOINT RightFingerBase
								{
									OFFSET 0 0 0
									CHANNELS 3 Zrotation Yrotation Xrotation
									JOINT RightHandIndex1
									{
										OFFSET -0.61651 -0.00000 0.00000
										CHANNELS 3 Zrotation Yrotation Xrotation
										End Site
										{
											OFFSET -0.49705 -0.00000 0.00000
										}
									}
								}
								JOINT RThumb
								{
									OFFSET 0 0 0
									CHANNELS 3 Zrotation Yrotation Xrotation
									End Site
									{
										OFFSET -0.50464 -0.00000 0.50464
									}
								}
							}
						}
					}
				}
			}
		}
	}
}
MOTION
Frames: 7
Frame Time: .016667
-7.9172 16.9916 4.2943 -174.9290 -6.3265 -171.9380 0.0000 0.0000 0.0000 -7.1375 -10.8832 -51.2352 12.0680 18.4192 66.2042 0.6974 -2.6101 16.9327 3.0831 10.8283 31.7031 0.0000 0.0000 0.0000 29.5818 3.8758 -19.5416 -3.3091 -11.1794 32.8873 -1.3506 -2.7082 -23.0769 -0.0055 0.4779 -1.3131 4.9358 0.6336 4.9615 0.4310 0.9659 2.0311 -2.3754 0.4567 -0.6099 2.8471 -0.8912 -8.6606 -1.7777 -1.4914 11.1954 -1.1159 -0.7729 4.7443 -0.0000 0.0000 0.0000 -75.4870 6.3255 50.1994 80.6569 -59.6676 -51.9177 -0.0000 -0.0000 7.8505 17.6154 21.7039 6.6970 -7.1250 0.0000 -0.0000 -11.4421 52.2870 -2.0746 -0.0000 0.0000 0.0000 70.2094 -6.4238 67.2534 -40.6967 48.4773 -18.9592 0.0000 0.0000 6.5839 24.4167 -25.0265 -10.8711 7.1250 -0.0000 -0.0000 50.4203 -48.3727 -5.5336
-7.9225 16.9911 4.4580 -174.9680 -5.2166 -171.7010 0.0000 0.0000 0.0000 -6.5165 -10.6736 -52.2128 13.0934 18.8156 69.4153 1.0303 -0.7878 19.4830 3.1650 10.9576 32.1369 0.0000 0.0000 0.0000 29.2122 4.1088 -20.3536 -3.3166 -11.1907 32.9256 -1.3492 -1.4335 -22.5091 -0.0060 0.5004 -1.3749 4.9077 0.9707 4.6422 0.4218 1.4078 1.9071 -2.3862 0.6811 -0.5262 2.8350 -0.8301 -8.5398 -2.1017 -1.3733 11.3473 -1.2072 -0.7388 4.7709 0.0000 -0.0000 0.0000 -76.2617 7.7315 49.8345 74.7389 -59.1014 -46.8234 -0.0000 -0.0000 6.6946 16.8033 21.5778 6.3372 -7.1250 0.0000 -0.0000 -12.1924 52.0195 -2.1333 0.0000 -0.0000 0.0000 68.4181 -4.7861 69.1332 -42.3390 49.3962 -20.1976 0.0000 0.0000 5.5596 27.6630 -24.6010 -12.3100 7.1250 -0.0000 -0.0000 52.3748 -47.5342 -4.4848
-7.9337 16.9914 4.6158 -174.6210 -4.3950 -171.6720 0.0000 0.0000 0.0000 -5.5283 -10.5195 -52.7902 14.1216 19.1505 72.5754 1.3461 0.6053 21.7548 3.1223 10.8904 31.9111 0.0000 0.0000 0.0000 29.2652 3.8545 -21.1369 -3.3278 -11.2076 32.9834 -1.3449 0.0675 -21.9181 -0.0303 1.1240 -3.0899 5.2527 1.2379 4.4576 0.5998 1.7628 1.8878 -2.4072 0.8593 -0.4094 2.8908 -0.7763 -8.5917 -2.5231 -1.2653 11.5772 -1.3426 -0.7137 4.8495 0.0000 0.0000 0.0000 -77.2425 8.9455 49.3419 68.7007 -58.2145 -41.6649 -0.0000 -0.0000 7.2826 15.8721 22.8699 6.3057 -7.1250 0.0000 -0.0000 -13.6579 53.1407 -2.7761 0.0000 0.0000 0.0000 66.6471 -2.9545 70.6014 -43.8556 50.1954 -21.3559 0.0000 0.0000 4.5556 30.8372 -24.1243 -13.7125 7.1250 -0.0000 -0.0000 54.0772 -46.6678 -3.1688
-7.9408 17.0007 4.7740 -174.5820 -3.8277 -171.8950 0.0000 0.0000 0.0000 -5.0373 -10.4799 -52.7771 15.0738 19.4080 75.4590 1.7145 1.8116 24.2577 3.1178 10.8834 31.8877 0.0000 0.0000 0.0000 29.0604 3.5728 -21.6361 -3.3142 -11.1871 32.9135 -1.2800 1.3324 -20.9956 -0.0348 1.2048 -3.3125 5.2037 1.3742 4.5969 0.7336 1.9425 1.9268 -2.2528 0.9445 -0.4389 2.7945 -0.6542 -8.8081 -2.6621 -1.0877 12.0750 -1.3649 -0.6472 5.0443 0.0000 0.0000 0.0000 -78.1992 10.3159 48.5363 63.2197 -57.1086 -37.0327 -0.0000 -0.0000 8.2578 14.4915 23.7156 5.9347 -7.1250 0.0000 -0.0000 -15.4215 53.7201 -3.3686 0.0000 0.0000 0.0000 64.8743 -0.8287 72.0076 -45.0679 50.8017 -22.2913 0.0000 0.0000 2.9551 34.8814 -23.6681 -15.6344 7.1250 -0.0000 -0.0000 56.0968 -45.6563 -1.3640
-7.9466 17.0164 4.9241 -174.4700 -3.3191 -172.0960 0.0000 0.0000 0.0000 -4.5434 -10.3731 -52.5293 15.9272 19.5976 78.0148 2.2075 3.2922 27.2878 3.2994 11.1646 32.8370 0.0000 0.0000 0.0000 29.0357 3.5468 -21.9543 -3.2826 -11.1391 32.7505 -1.2066 2.0402 -20.1901 -0.0366 1.2350 -3.3955 5.2542 1.4661 4.7355 0.8110 2.0725 1.9116 -2.2113 1.0049 -0.5226 3.0437 -0.5160 -8.9831 -2.9128 -0.9212 12.5590 -1.4788 -0.5789 5.2261 -0.0000 -0.0000 0.0000 -78.8840 11.8989 47.7341 58.8517 -55.9961 -33.3874 -0.0000 -0.0000 7.7819 12.7383 24.3324 5.3215 -7.1250 0.0000 -0.0000 -17.4686 53.9938 -3.9547 -0.0000 -0.0000 0.0000 63.2483 1.3001 73.2459 -46.2840 51.3822 -23.2377 0.0000 0.0000 1.4121 39.1370 -23.3563 -17.8802 7.1250 -0.0000 -0.0000 57.9672 -44.6708 0.7497
-7.9496 17.0352 5.0660 -174.5990 -3.0222 -172.1950 0.0000 0.0000 0.0000 -4.4172 -10.3816 -52.0250 16.6300 19.7255 80.1032 2.7860 4.4259 30.5881 3.4661 11.4139 33.6887 0.0000 0.0000 0.0000 28.8088 3.8164 -22.2314 -3.2457 -11.0826 32.5588 -1.1282 2.1377 -19.4801 -0.0285 1.0903 -2.9972 5.1194 1.4748 4.6210 0.7773 2.0743 1.9095 -2.1674 1.0083 -0.4649 3.2690 -0.4045 -9.1211 -3.0008 -0.8069 12.9719 -1.5406 -0.5252 5.3802 -0.0000 0.0000 0.0000 -79.3442 13.5067 47.0819 55.5842 -55.0136 -30.6941 -0.0000 -0.0000 5.0996 11.1662 25.6306 4.8804 -7.1250 0.0000 -0.0000 -19.7425 54.9321 -4.9589 -0.0000 0.0000 0.0000 61.7138 3.4995 74.4574 -47.5237 51.9466 -24.2101 0.0000 0.0000 0.0215 43.2502 -22.9385 -20.1348 7.1250 -0.0000 -0.0000 59.1740 -43.5494 3.5679
-7.9532 17.0509 5.2069 -174.8930 -2.8193 -172.3740 0.0000 0.0000 0.0000 -4.6311 -10.3734 -51.0699 17.1683 19.8067 81.6949 3.3889 5.0741 33.7881 3.7834 11.8664 35.2610 0.0000 0.0000 0.0000 28.4036 4.4052 -22.3672 -3.2348 -11.0658 32.5021 -1.0433 1.7795 -18.7922 -0.0133 0.7456 -2.0490 4.9528 1.4691 4.6507 0.6378 2.0646 1.9223 -2.2181 1.0055 -0.4703 3.3447 -0.2900 -9.3445 -2.8734 -0.6978 13.4019 -1.5111 -0.4653 5.5566 -0.0000 -0.0000 0.0000 -79.5309 15.0207 46.7798 52.9710 -54.1257 -28.5645 -0.0000 -0.0000 1.0729 10.3672 27.0707 4.7592 -7.1250 0.0000 -0.0000 -21.4219 56.1213 -6.0396 -0.0000 -0.0000 0.0000 60.2284 5.6845 75.4106 -48.8477 52.5200 -25.2568 0.0000 -0.0000 -0.7315 45.3238 -22.5270 -21.1800 7.1250 -0.0000 -0.0000 59.3479 -42.7693 5.6500
